<svg xmlns="http://www.w3.org/2000/svg" viewBox="0 0 100 100">
  <rect width="100" height="100" rx="22" fill="#445839"/>
  <g fill="#fbf8f2">
    <ellipse cx="32" cy="36" rx="9" ry="12" transform="rotate(-18 32 36)"/>
    <ellipse cx="68" cy="36" rx="9" ry="12" transform="rotate(18 68 36)"/>
    <ellipse cx="18" cy="56" rx="8" ry="10" transform="rotate(-38 18 56)"/>
    <ellipse cx="82" cy="56" rx="8" ry="10" transform="rotate(38 82 56)"/>
    <path d="M50 52c12 0 22 10 22 21 0 8-6 13-13 13-4 0-6-2-9-2s-5 2-9 2c-7 0-13-5-13-13 0-11 10-21 22-21z"/>
  </g>
</svg>
