<?xml version="1.0" encoding="utf-8"?>
<!-- Generator: Adobe Illustrator 27.3.1, SVG Export Plug-In . SVG Version: 6.00 Build 0)  -->
<svg version="1.1" id="Layer_1" xmlns="http://www.w3.org/2000/svg" xmlns:xlink="http://www.w3.org/1999/xlink" x="0px" y="0px"
	 viewBox="0 0 62 52.2" style="enable-background:new 0 0 62 52.2;" xml:space="preserve">
<style type="text/css">
	.st0{fill:none;stroke:#284D69;stroke-width:1.91;stroke-miterlimit:10;}
	.st1{fill:none;stroke:#284D69;stroke-width:1.91;stroke-linecap:round;stroke-linejoin:round;stroke-miterlimit:10;}
	.st2{fill:none;stroke:#284D69;stroke-width:1.91;stroke-linejoin:round;stroke-miterlimit:10;}
</style>
<g>
	<path class="st0" d="M9.1,11.2c4.5-0.1,4.4,3.5,3.8,5.1c-1,2.7-0.4,5.7,0.3,7.5c1.4,3.6,0.8,5.7-2.2,5.7c-8.4,0-12.8-7.5-12.8-12.2
		C-1.7,14.9,1.5,11.5,9.1,11.2z"/>
	<line class="st1" x1="22" y1="19.9" x2="22.2" y2="19.9"/>
	<path class="st2" d="M34.2,21.7c0,0-1.8,6.1,4.2,6.5"/>
	<path class="st2" d="M17.1,45.6C0.2,44.2-6.7,34.2-6.9,33.8c-0.3-0.4-0.9-0.2-1.1,0.2l-1.6,4.1c-0.1,0.3,0,0.7,0.2,1
		c0.3,0.4,7.7,10.2,24.7,11.3c0.9,0.1,1.2,0,1.5-0.5c0.3-0.5,0.5-2.3,0.7-3.7C17.6,45.6,17.1,45.6,17.1,45.6z"/>
	<path class="st1" d="M16,34.7c8.4,1.8,17.5,1.8,20.5-0.3c0,0,2.9-3.7,1.5-11c-1.4-1-3.5-1.5-5.7-2.2c-3.7-1.2-4.6-2.7-5.8-4.6
		c-2-3.9-8-7.7-16.9-5.3"/>
	<path class="st2" d="M17,45.6c0.6-3.7,1.6-8.1,2.2-9.8"/>
	<path class="st2" d="M16.2,53.5c0-0.9,0.1-2,0.2-3.1"/>
	<path class="st2" d="M-9.6,38.9c-1.9,3.8-3.5,6.2-3.5,6.2"/>
	<path class="st2" d="M-1.7,19.2c-1.3,2.4-3.2,8.4-5.5,14.4"/>
</g>
<path class="st2" d="M51,28.5"/>
<path class="st0" d="M70.7,11.5c-4.5-0.1-4.4,3.5-3.8,5.1c1,2.7,0.4,5.7-0.3,7.5c-1.4,3.6-0.8,5.7,2.2,5.7c8.4,0,12.8-7.5,12.8-12.2
	C81.5,15.2,78.3,11.7,70.7,11.5z"/>
<line class="st1" x1="57.9" y1="20.2" x2="57.6" y2="20.2"/>
<path class="st2" d="M45.6,22c0,0,1.8,6.1-4.2,6.5"/>
<path class="st1" d="M63.8,35c-8.4,1.8-17.5,1.8-20.5-0.3c0,0-2.9-3.7-1.5-11c1.4-1,3.5-1.5,5.7-2.2c3.7-1.2,4.6-2.7,5.8-4.6
	c2-3.9,8-7.7,16.9-5.3"/>
<path class="st2" d="M89.4,39.2c1.9,3.8,3.5,6.2,3.5,6.2"/>
<path class="st2" d="M81.5,19.5c1.3,2.4,3.2,8.4,5.5,14.4"/>
</svg>
