<?xml version="1.0" encoding="utf-8"?>
<!-- Generator: Adobe Illustrator 27.3.1, SVG Export Plug-In . SVG Version: 6.00 Build 0)  -->
<svg version="1.1" id="Layer_1" xmlns="http://www.w3.org/2000/svg" xmlns:xlink="http://www.w3.org/1999/xlink" x="0px" y="0px"
	 viewBox="0 0 62 52.2" style="enable-background:new 0 0 62 52.2;" xml:space="preserve">
<style type="text/css">
	.st0{fill:none;stroke:#284D69;stroke-width:1.9313;stroke-miterlimit:10;}
	.st1{fill:none;stroke:#284D69;stroke-width:1.9313;stroke-linecap:round;stroke-linejoin:round;stroke-miterlimit:10;}
	.st2{fill:#284D69;}
</style>
<g>
	<path class="st0" d="M14.5,48h-0.2c-3,0-5.5-2.5-5.5-5.5V42c0-3,2.5-5.5,5.5-5.5h0.2c3,0,5.5,2.5,5.5,5.5v0.5
		C20,45.5,17.5,48,14.5,48z"/>
	<path class="st0" d="M47.7,48h-0.2c-3,0-5.5-2.5-5.5-5.5V42c0-3,2.5-5.5,5.5-5.5h0.2c3,0,5.5,2.5,5.5,5.5v0.5
		C53.3,45.5,50.8,48,47.7,48z"/>
	<line class="st0" x1="42" y1="42.5" x2="20" y2="42.5"/>
	<path class="st1" d="M8.8,42.5H1.4V10.3h47.3c0,0,1-0.5,1.8,1.3c0.8,1.8,4.1,13.9,4.1,13.9s5.3,3.1,6.2,6.1v10.1h-7.5"/>
	<path class="st1" d="M41.5,14.2l1.7,7.8c0,0,0.6,2.5,2.8,3.1c2.2,0.5,9,1,9,1"/>
</g>
<g>
	<g>
		<path class="st2" d="M22.5,30.8c-0.4,0.9-1,1.4-1.8,1.5c-0.4,0.1-0.8,0-1.2-0.2c-0.4-0.2-0.8-0.5-1.2-0.8
			c-0.3-0.2-0.6-0.4-0.9-0.6c-0.4-0.2-0.8-0.3-1.3-0.3c-0.5-0.1-0.9-0.1-1.4-0.2c-0.5-0.1-0.9-0.3-1.2-0.6c-0.5-0.5-0.7-1-0.7-1.7
			c0-0.8,0.4-1.4,1-1.9c0.4-0.4,0.9-0.6,1.4-0.8c0.7-0.2,1.3-0.6,1.9-1.1c0.4-0.2,0.7-0.5,1.1-0.7c0.6-0.3,1.2-0.4,1.8-0.1
			c0.6,0.2,1,0.7,1.2,1.3c0.1,0.4,0.2,0.9,0.3,1.3c0.2,0.7,0.3,1.3,0.7,1.9c0.4,0.7,0.5,1.4,0.4,2.2C22.6,30.4,22.6,30.7,22.5,30.8z
			"/>
		<path class="st2" d="M17.2,19.2c0.3-0.7,0.5-1.1,1-1.4c0.7-0.5,1.6-0.3,2,0.4c0.3,0.5,0.4,1.1,0.4,1.7c0,0.7-0.3,1.4-0.8,2
			c-0.3,0.3-0.6,0.6-1.1,0.6c-0.5,0.1-0.9-0.1-1.2-0.4c-0.4-0.4-0.6-1-0.6-1.6C17,20,17,19.6,17.2,19.2z"/>
		<path class="st2" d="M24.9,22.2c-0.3,0.8-0.9,1.4-1.7,1.7c-0.3,0.1-0.7,0.2-1,0.1c-0.5-0.1-0.9-0.4-1.1-0.9
			c-0.3-0.6-0.2-1.3,0.1-1.9c0.3-0.7,0.7-1.2,1.3-1.5c0.3-0.2,0.7-0.3,1.1-0.3c0.6,0,1.1,0.4,1.4,1C25.2,21,25.2,21.6,24.9,22.2z"/>
		<path class="st2" d="M12.7,21.1c0.1-0.4,0.4-0.7,0.7-0.9c0.5-0.3,1.1-0.3,1.6,0c0.5,0.4,0.8,0.8,0.9,1.4c0.2,0.7,0.1,1.5-0.3,2.1
			c-0.2,0.4-0.6,0.7-1,0.8c-0.5,0.1-1-0.1-1.3-0.4c-0.4-0.4-0.7-0.9-0.7-1.5C12.5,22,12.5,21.5,12.7,21.1z"/>
		<path class="st2" d="M26.9,26.6c-0.4,0.8-1,1.4-1.8,1.7c-0.4,0.1-0.8,0.1-1.2,0c-0.6-0.2-1-0.8-0.9-1.5c0.1-0.8,0.5-1.4,1.1-1.9
			c0.5-0.4,1-0.6,1.7-0.6c0.8,0,1.4,0.6,1.4,1.4C27.1,26.1,27,26.4,26.9,26.6z"/>
	</g>
	<g>
		<path class="st2" d="M37.4,33.9c-0.4,0.5-0.9,0.7-1.5,0.6c-0.3,0-0.5-0.2-0.7-0.4c-0.2-0.2-0.4-0.5-0.6-0.7
			c-0.2-0.2-0.3-0.4-0.5-0.6c-0.2-0.2-0.5-0.3-0.8-0.5c-0.3-0.1-0.6-0.2-0.8-0.4c-0.3-0.1-0.5-0.3-0.7-0.6c-0.2-0.4-0.2-0.8-0.1-1.2
			c0.2-0.5,0.5-0.8,1-1c0.3-0.2,0.7-0.2,1-0.3c0.5,0,1-0.2,1.4-0.3c0.3-0.1,0.5-0.2,0.8-0.2c0.4-0.1,0.8,0,1.2,0.3
			c0.3,0.3,0.5,0.6,0.5,1.1c0,0.3,0,0.6,0,0.9c0,0.5,0,0.9,0,1.3c0.1,0.5,0.1,1-0.1,1.5C37.6,33.7,37.5,33.8,37.4,33.9z"/>
		<path class="st2" d="M36.3,25.6c0.3-0.4,0.6-0.6,0.9-0.7c0.6-0.2,1,0.1,1.2,0.7c0.1,0.4,0.1,0.8,0,1.1c-0.2,0.5-0.4,0.9-0.9,1.1
			C37.2,27.9,37,28,36.7,28c-0.3,0-0.5-0.2-0.7-0.5c-0.2-0.4-0.2-0.7-0.1-1.1C36,26,36.1,25.8,36.3,25.6z"/>
		<path class="st2" d="M40.6,28.9c-0.4,0.4-0.8,0.7-1.4,0.8c-0.2,0-0.5,0-0.7-0.1c-0.3-0.2-0.5-0.4-0.5-0.7c0-0.5,0.1-0.8,0.4-1.2
			c0.3-0.4,0.7-0.6,1.1-0.7c0.2-0.1,0.5-0.1,0.7,0c0.4,0.1,0.7,0.4,0.7,0.9C41,28.2,40.9,28.5,40.6,28.9z"/>
		<path class="st2" d="M33.1,25.9c0.2-0.2,0.4-0.4,0.6-0.5c0.4-0.1,0.8,0,1,0.3c0.2,0.3,0.3,0.7,0.3,1.1c0,0.5-0.2,0.9-0.6,1.3
			c-0.2,0.2-0.5,0.3-0.8,0.3c-0.3,0-0.6-0.2-0.8-0.5c-0.2-0.3-0.2-0.7-0.2-1.1C32.8,26.4,32.9,26.1,33.1,25.9z"/>
		<path class="st2" d="M41,32.1c-0.4,0.5-0.9,0.7-1.5,0.7c-0.3,0-0.5-0.1-0.7-0.2c-0.4-0.3-0.5-0.7-0.3-1.1c0.2-0.5,0.6-0.8,1-1
			c0.4-0.2,0.8-0.2,1.2-0.1c0.5,0.2,0.7,0.7,0.6,1.1C41.2,31.8,41.1,31.9,41,32.1z"/>
	</g>
</g>
</svg>
