<?xml version="1.0" encoding="utf-8"?>
<!-- Generator: Adobe Illustrator 27.3.1, SVG Export Plug-In . SVG Version: 6.00 Build 0)  -->
<svg version="1.1" id="Layer_1" xmlns="http://www.w3.org/2000/svg" xmlns:xlink="http://www.w3.org/1999/xlink" x="0px" y="0px"
	 viewBox="0 0 62 52.2" style="enable-background:new 0 0 62 52.2;" xml:space="preserve">
<style type="text/css">
	.st0{fill:none;stroke:#284D69;stroke-width:1.91;stroke-miterlimit:10;}
	.st1{fill:none;stroke:#284D69;stroke-width:1.91;stroke-linecap:round;stroke-linejoin:round;stroke-miterlimit:10;}
	.st2{fill:none;stroke:#284D69;stroke-width:1.91;stroke-linejoin:round;stroke-miterlimit:10;}
</style>
<g>
	<path class="st0" d="M24.7,12.8c3.6-0.1,3.6,2.9,3.1,4.2c-0.8,2.2-0.3,4.7,0.3,6.2c1.1,2.9,0.6,4.7-1.8,4.7
		c-6.8,0-10.4-6.2-10.4-10C15.8,15.9,18.5,13,24.7,12.8z"/>
	<line class="st1" x1="35.1" y1="20" x2="35.3" y2="20"/>
	<path class="st2" d="M45.1,21.5c0,0-1.5,5,3.4,5.4"/>
	<path class="st1" d="M30.3,32.1c6.8,1.5,14.3,1.5,16.7-0.2c0,0,2.4-3,1.3-9.1c-1.2-0.8-2.9-1.3-4.6-1.8c-3-1-3.4-2-4.3-3.5
		c-1.7-3.2-6.9-6.6-14.1-4.6"/>
	<path class="st1" d="M32.4,35.2C30,42.6,31,51.1,31,51.1s28.7-18.8,28.7-33.8c0-8.9-7.1-16.1-15.9-16.1c-5.3,0-9.9,2.6-12.8,6.6
		c-2.9-4-7.6-6.6-12.8-6.6C9.4,1.2,2.3,8.4,2.3,17.3c0,5.6,3.5,11.4,8.1,16.6c0,0,0.9-8.7,5.5-14.8"/>
</g>
</svg>
